# xmcd CD database file
#
# Track frame offsets:
#	150
#	33433
#	67299
#	90204
#	117503
#	142737
#	188012
#	204688
#	222268
#
# Disc length: 3251 seconds
#
# Revision: 0
# Processed by: cddbd v1.5PL3 Copyright (c) Steve Scherf et al.
# Submitted via: CDex 1.50beta10
#
DISCID=800cb109
DTITLE=John Littlejohn - Sweet Little Angel
DYEAR=1978
DGENRE=Blues
TTITLE0=Please Love Me
TTITLE1=Sweet Little Angel
TTITLE2=Next Time You See Me
TTITLE3=Burro Beat
TTITLE4=Twenty Nine Ways
TTITLE5=Driftin' Blues
TTITLE6=Dust My Broom
TTITLE7=Close To You
TTITLE8=I'm Ready
EXTD=YEAR: 1978
EXTT0=
EXTT1=
EXTT2=
EXTT3=
EXTT4=
EXTT5=
EXTT6=
EXTT7=
EXTT8=
PLAYORDER=
